<!-- Generated by IcoMoon.io -->
<svg version="1.1" xmlns="http://www.w3.org/2000/svg" width="32" height="32" viewBox="0 0 32 32">
<title>instagram-2</title>
<path fill="#f4f4fd" d="M31.968 9.408c-0.075-1.7-0.349-2.869-0.743-3.883-0.424-1.111-1.054-2.058-1.849-2.836l-0.001-0.001c-0.78-0.792-1.724-1.419-2.778-1.826l-0.054-0.018c-1.019-0.393-2.183-0.671-3.883-0.744-1.712-0.080-2.256-0.1-6.6-0.1-4.347 0-4.889 0.019-6.596 0.093-1.7 0.076-2.869 0.351-3.881 0.744-1.112 0.424-2.059 1.054-2.837 1.849l-0.001 0.001c-0.792 0.78-1.419 1.724-1.826 2.778l-0.018 0.054c-0.393 1.019-0.669 2.181-0.744 3.88-0.080 1.715-0.1 2.259-0.1 6.603 0 4.345 0.019 4.889 0.093 6.596 0.077 1.7 0.351 2.868 0.744 3.881 0.427 1.111 1.056 2.057 1.85 2.838l0.001 0.001c0.8 0.813 1.769 1.444 2.832 1.844 1.019 0.393 2.181 0.668 3.881 0.744 1.707 0.075 2.251 0.093 6.596 0.093 4.344 0 4.888-0.019 6.595-0.093 1.7-0.076 2.869-0.351 3.881-0.744 2.157-0.85 3.833-2.526 4.663-4.627l0.019-0.055c0.393-1.019 0.669-2.181 0.744-3.881 0.075-1.707 0.093-2.251 0.093-6.596 0-4.344-0.005-4.888-0.080-6.595zM29.088 22.473c-0.071 1.563-0.333 2.407-0.551 2.969-0.552 1.4-1.64 2.487-3.004 3.025l-0.036 0.012c-0.561 0.22-1.412 0.481-2.968 0.551-1.688 0.075-2.195 0.093-6.464 0.093s-4.783-0.019-6.464-0.093c-1.563-0.069-2.407-0.331-2.969-0.551-0.721-0.269-1.335-0.676-1.836-1.192l-0.001-0.001c-0.517-0.504-0.924-1.117-1.183-1.803l-0.011-0.034c-0.219-0.563-0.48-1.413-0.549-2.969-0.076-1.688-0.093-2.195-0.093-6.464 0-4.271 0.017-4.783 0.093-6.464 0.068-1.563 0.331-2.407 0.549-2.969 0.257-0.693 0.663-1.325 1.2-1.839 0.504-0.517 1.118-0.923 1.804-1.182l0.034-0.011c0.563-0.219 1.413-0.48 2.969-0.551 1.688-0.075 2.195-0.093 6.464-0.093 4.276 0 4.781 0.019 6.464 0.093 1.563 0.069 2.407 0.332 2.969 0.551 0.693 0.256 1.324 0.663 1.837 1.193 0.531 0.52 0.937 1.144 1.193 1.839 0.22 0.563 0.481 1.413 0.551 2.969 0.075 1.688 0.093 2.193 0.093 6.464 0 4.269-0.019 4.769-0.093 6.457z"></path>
<path fill="#f4f4fd" d="M16.059 7.783c-4.539 0.002-8.218 3.681-8.22 8.22v0c0.001 4.54 3.68 8.22 8.22 8.221h0c4.54-0.002 8.219-3.682 8.22-8.221v-0c-0.002-4.539-3.681-8.218-8.22-8.22h-0zM16.059 21.336c-2.945-0.001-5.332-2.388-5.332-5.333s2.388-5.333 5.333-5.333c0 0 0.001 0 0.001 0h-0c2.945 0.001 5.332 2.388 5.332 5.333s-2.388 5.333-5.333 5.333c-0 0-0.001 0-0.001 0h0zM26.524 7.457c0.001 0.021 0.001 0.046 0.001 0.072 0 1.060-0.86 1.92-1.92 1.92s-1.92-0.86-1.92-1.92c0-0.025 0-0.050 0.001-0.075l-0 0.004c0.040-1.029 0.883-1.848 1.919-1.848s1.879 0.819 1.919 1.845l0 0.004z"></path>
</svg>
